<svg width="3891" height="3584" viewBox="0 0 3891 3584" fill="none" xmlns="http://www.w3.org/2000/svg">
<path d="M3799.22 1036.81C3989 704.913 3873.86 281.968 3542.06 92.1369C3210.26 -97.6938 2787.44 17.4756 2597.67 349.375L1342.96 2543.75C1153.19 2875.65 1268.32 3298.6 1600.12 3488.43C1931.92 3678.26 2354.74 3563.09 2544.52 3231.19L3799.22 1036.81Z" fill="url(#paint0_linear_225_5)"/>
<path d="M91.1107 1036.2L1343.19 3238.19C1508.36 3528.68 1859.24 3657.18 2172.87 3542.05C2258.56 3510.6 2337.07 3462.3 2403.79 3400.01L2412.81 3391.59C2462.67 3345.04 2505.37 3291.38 2539.54 3232.34L2759.8 2851.79L3754.3 1115.53L3056.3 2096.99C2889.52 2273.66 2716.56 2276.18 2685.67 2282.36C2654.79 2288.54 2402.69 2282.36 2288.55 2087.15C2178.35 1898.68 1968.32 1527.38 1953.97 1502.01C1953.41 1501.03 1952.91 1500.15 1952.35 1499.17L1294.92 349.376C1105.15 17.4764 681.61 -97.2817 349.809 92.5489C18.5704 282.058 -97.549 704.406 91.1107 1036.2Z" fill="url(#paint1_linear_225_5)"/>
<defs>
<linearGradient id="paint0_linear_225_5" x1="1858.16" y1="1140.66" x2="1881.82" y2="2612.97" gradientUnits="userSpaceOnUse">
<stop stop-color="#CC00CC"/>
<stop offset="1" stop-color="#640064"/>
</linearGradient>
<linearGradient id="paint1_linear_225_5" x1="-258.147" y1="1978.83" x2="1947.1" y2="1534.21" gradientUnits="userSpaceOnUse">
<stop stop-color="#BDDFFF"/>
<stop offset="1" stop-color="#CC00CC"/>
</linearGradient>
</defs>
</svg>
